<svg width="53" height="50" viewBox="0 0 53 50" fill="none" xmlns="http://www.w3.org/2000/svg">
<g clip-path="url(#clip0_274_12950)">
<path d="M24.5853 0.601808C20.1299 -0.542707 15.5094 -0.205902 11.1662 2.9345C9.04761 4.46571 7.58014 6.72668 6.29962 9.00635C3.37404 14.2268 -0.875678 21.9016 0.158712 28.0577C0.616709 30.7927 2.12156 33.2252 3.66691 35.5267C8.77343 43.1422 15.3038 50.7078 25.3174 49.95C30.3772 49.5665 35.1441 47.4552 39.5839 44.9946C45.4631 41.7388 52.1586 36.955 52.9375 29.7012C53.8473 21.228 44.9366 13.4971 39.0293 8.71632C34.9323 5.4044 29.8756 1.9615 24.5853 0.601808Z" fill="#343C44"/>
<path d="M25.0401 7.31017C24.4637 7.17295 23.8842 7.05445 23.2954 6.98896C22.7065 6.94218 22.1177 6.90476 21.5319 6.95465C20.9493 7.00455 20.3667 7.07628 19.809 7.23844C19.5286 7.30393 19.2544 7.40685 18.9802 7.49729C18.7123 7.60955 18.4443 7.70935 18.1888 7.84345C17.6685 8.08358 17.1887 8.40167 16.7307 8.72912C16.5095 8.90688 16.2821 9.07216 16.0733 9.26863L15.7587 9.5493C15.6652 9.64598 15.5655 9.73642 15.4751 9.83621C14.7398 10.619 14.1884 11.567 13.6992 12.5774C13.4531 13.0858 13.2256 13.6034 12.9889 14.1461L12.266 15.7833L11.5526 17.3925L11.2005 18.1877C11.0883 18.4528 10.9824 18.721 10.8609 18.9799C9.97604 21.0786 9.18156 23.1743 8.8918 25.1827L8.83884 25.56L8.81391 25.928L8.78587 26.2991L8.79833 26.6578C8.78275 27.1443 8.86688 27.612 8.96658 28.1141C9.18467 29.109 9.62398 30.1412 10.1474 31.1766C10.6771 32.2182 11.2721 33.266 11.8922 34.2702C12.5277 35.265 13.2007 36.238 13.9609 37.133C14.1448 37.3638 14.3504 37.5728 14.5436 37.7911C14.7398 38.0094 14.9361 38.2277 15.1511 38.4241L15.7836 39.0291C16.0017 39.2225 16.2322 39.4002 16.4534 39.5873C17.3601 40.3077 18.329 40.9533 19.3821 41.3961C19.513 41.4554 19.6407 41.5177 19.7685 41.5739L20.1704 41.7111C20.4414 41.7953 20.7 41.9076 20.9773 41.9699L21.7999 42.1539C22.0709 42.2194 22.3544 42.2288 22.6317 42.2631C23.1801 42.3535 23.744 42.3005 24.2924 42.3099L25.118 42.2163L25.5293 42.1726L25.9437 42.0978C27.0435 41.892 28.1152 41.5427 29.1621 41.1342C29.6855 40.9252 30.2027 40.7007 30.7137 40.4512C31.2278 40.2173 31.7356 39.9522 32.2403 39.6871C33.2436 39.1383 34.2406 38.5582 35.2376 37.9563C36.2252 37.3545 37.1849 36.7339 38.0822 36.0634C39.8736 34.7317 41.4439 33.2036 42.4378 31.5321C42.9301 30.6932 43.2821 29.8356 43.466 28.9468C43.494 28.7223 43.5283 28.4977 43.5688 28.2763C43.5906 28.164 43.5875 28.0611 43.5999 27.952C43.6124 27.8459 43.6155 27.7368 43.6124 27.6276C43.6217 27.4125 43.6031 27.191 43.5906 26.9727C43.5594 26.7513 43.5407 26.5299 43.4971 26.3054C43.3507 25.4072 42.9986 24.4872 42.5469 23.5673C42.3163 23.1088 42.0608 22.6504 41.7711 22.1982C41.4844 21.7491 41.1853 21.2907 40.8551 20.8479C39.5527 19.0641 38.0448 17.2927 36.4371 15.5494C34.8107 13.7968 33.1813 12.0566 31.3088 10.594C29.4456 9.12518 27.3363 7.92453 25.0401 7.31017ZM25.1492 6.88605C27.5108 7.49729 29.7572 8.47652 31.9381 9.59608C33.0286 10.1574 34.1128 10.7468 35.1784 11.3737C36.2408 12.0099 37.2783 12.6492 38.3096 13.329C40.3659 14.6949 42.3848 16.2262 44.1296 18.1721C45.002 19.142 45.8058 20.2148 46.4975 21.4092C46.8464 22.0017 47.1611 22.6348 47.4259 23.3022C47.697 23.9664 47.912 24.6712 48.0678 25.401C48.3918 26.8511 48.3575 28.4821 48.0428 29.926C47.7126 31.3949 47.0988 32.7764 46.3012 33.9677C45.5129 35.1683 44.5627 36.1912 43.5657 37.0925C42.5624 37.9906 41.5 38.764 40.4189 39.4595C39.3346 40.1549 38.2317 40.7755 37.1194 41.34C36.0134 41.9044 34.8731 42.4284 33.6891 42.8774C31.3337 43.7912 28.782 44.4118 26.1929 44.471L25.71 44.4804L25.2177 44.4585L24.2425 44.4087L23.2767 44.2652C23.1178 44.2403 22.9558 44.2278 22.7969 44.1872L22.3233 44.0718C21.0583 43.7974 19.8619 43.2984 18.7434 42.709C16.4971 41.5209 14.6308 39.84 12.9234 38.0686C12.7147 37.8409 12.5028 37.6195 12.2878 37.3981C12.076 37.1736 11.8797 36.9397 11.6709 36.712C11.2472 36.263 10.8671 35.7858 10.4558 35.3243C9.66759 34.3793 8.88869 33.45 8.11912 32.4677C7.35579 31.476 6.60493 30.3938 6.04723 29.109C5.77305 28.4697 5.5425 27.768 5.42722 27.0538L5.33687 26.5174L5.29325 25.9873L5.25586 25.454L5.26521 24.9301C5.29325 23.5298 5.55496 22.1982 5.92884 20.9414C6.30271 19.6815 6.7981 18.4934 7.35268 17.3582C7.63309 16.7937 7.9353 16.2417 8.23752 15.6991C8.55531 15.1627 8.87311 14.6326 9.20648 14.1149C9.54297 13.6003 9.87946 13.092 10.2284 12.5961C10.5774 12.0878 10.9575 11.567 11.3656 11.0649C12.1819 10.0607 13.1353 9.09399 14.2694 8.35489C14.4065 8.26133 14.556 8.17713 14.6993 8.08981L15.1293 7.86216C15.4097 7.70623 15.7119 7.58149 16.0017 7.44739C16.5936 7.19478 17.1918 6.97337 17.8087 6.8112C19.0332 6.47439 20.2888 6.3403 21.5195 6.36836C22.7532 6.39643 23.9683 6.58666 25.1492 6.88605Z" fill="#7480FF"/>
<path d="M29.7608 32.5545C27.3742 31.7561 26.5579 29.1271 24.1277 28.5689C23.2273 28.3631 22.1648 28.4972 21.2364 28.6937C19.8717 28.9806 18.8934 29.1615 17.4883 29.0679C19.2206 30.2062 19.5134 32.1116 21.6726 32.7665C22.5917 33.0441 23.4298 33.384 24.2959 33.805C25.3459 34.3164 26.0563 34.0327 27.0875 33.6615C27.9506 33.3497 28.9226 33.0503 29.7608 32.5545Z" fill="#25A8E0"/>
<path d="M29.8671 30.4901C26.8699 30.7177 26.979 25.8465 25.7514 24.2311C24.6796 22.8215 23.0595 22.5346 21.6762 21.5179C20.6168 20.7352 20.1526 19.8776 19.8847 18.6146C19.7569 18.0064 19.7787 17.2455 19.4609 16.8682C21.6512 18.8547 25.4741 17.8193 27.0631 20.7383C27.8358 22.1573 28.1691 23.1396 29.5213 24.0689C30.8299 24.9671 31.0355 25.6594 30.7707 27.2031C30.5837 28.3071 30.4342 29.5233 29.8671 30.4901Z" fill="#25A8E0"/>
<path d="M31.6174 32.8758C30.1188 31.8279 32.2468 29.6356 32.7795 28.6969C33.0662 28.1948 33.3777 27.5337 33.4806 26.9567C33.5834 26.3767 33.359 25.9401 33.2718 25.3912C32.9852 23.5918 34.2813 22.3101 35.0446 20.8506C35.8516 22.9587 37.0729 24.7675 36.699 27.147C36.3812 29.1678 35.0446 30.83 33.3746 31.9028C32.8605 32.2365 32.1938 32.7261 31.6174 32.8758Z" fill="#25A8E0"/>
</g>
<defs>
<clipPath id="clip0_274_12950">
<rect width="53" height="50" fill="white"/>
</clipPath>
</defs>
</svg>
