<svg width="238" height="59" viewBox="0 0 238 59" fill="none" xmlns="http://www.w3.org/2000/svg">
<path d="M76.44 31.14H65.94L63.87 36H59.85L69.3 15H73.14L82.62 36H78.54L76.44 31.14ZM75.15 28.08L71.19 18.9L67.26 28.08H75.15ZM84.2907 13.74H88.0407V36H84.2907V13.74ZM101.203 19.8C102.763 19.8 104.153 20.14 105.373 20.82C106.613 21.5 107.583 22.46 108.283 23.7C108.983 24.94 109.333 26.37 109.333 27.99C109.333 29.61 108.983 31.05 108.283 32.31C107.583 33.55 106.613 34.51 105.373 35.19C104.153 35.87 102.763 36.21 101.203 36.21C99.0426 36.21 97.3326 35.49 96.0726 34.05V41.82H92.3226V19.98H95.8926V22.08C96.5126 21.32 97.2726 20.75 98.1726 20.37C99.0926 19.99 100.103 19.8 101.203 19.8ZM100.783 33C102.163 33 103.293 32.54 104.173 31.62C105.073 30.7 105.523 29.49 105.523 27.99C105.523 26.49 105.073 25.28 104.173 24.36C103.293 23.44 102.163 22.98 100.783 22.98C99.8826 22.98 99.0726 23.19 98.3526 23.61C97.6326 24.01 97.0626 24.59 96.6426 25.35C96.2226 26.11 96.0126 26.99 96.0126 27.99C96.0126 28.99 96.2226 29.87 96.6426 30.63C97.0626 31.39 97.6326 31.98 98.3526 32.4C99.0726 32.8 99.8826 33 100.783 33ZM121.339 19.8C123.359 19.8 124.979 20.39 126.199 21.57C127.419 22.75 128.029 24.5 128.029 26.82V36H124.279V27.3C124.279 25.9 123.949 24.85 123.289 24.15C122.629 23.43 121.689 23.07 120.469 23.07C119.089 23.07 117.999 23.49 117.199 24.33C116.399 25.15 115.999 26.34 115.999 27.9V36H112.249V13.74H115.999V21.84C116.619 21.18 117.379 20.68 118.279 20.34C119.199 19.98 120.219 19.8 121.339 19.8ZM138.266 19.8C140.626 19.8 142.426 20.37 143.666 21.51C144.926 22.63 145.556 24.33 145.556 26.61V36H142.016V34.05C141.556 34.75 140.896 35.29 140.036 35.67C139.196 36.03 138.176 36.21 136.976 36.21C135.776 36.21 134.726 36.01 133.826 35.61C132.926 35.19 132.226 34.62 131.726 33.9C131.246 33.16 131.006 32.33 131.006 31.41C131.006 29.97 131.536 28.82 132.596 27.96C133.676 27.08 135.366 26.64 137.666 26.64H141.806V26.4C141.806 25.28 141.466 24.42 140.786 23.82C140.126 23.22 139.136 22.92 137.816 22.92C136.916 22.92 136.026 23.06 135.146 23.34C134.286 23.62 133.556 24.01 132.956 24.51L131.486 21.78C132.326 21.14 133.336 20.65 134.516 20.31C135.696 19.97 136.946 19.8 138.266 19.8ZM137.756 33.48C138.696 33.48 139.526 33.27 140.246 32.85C140.986 32.41 141.506 31.79 141.806 30.99V29.13H137.936C135.776 29.13 134.696 29.84 134.696 31.26C134.696 31.94 134.966 32.48 135.506 32.88C136.046 33.28 136.796 33.48 137.756 33.48ZM150.929 36.21C150.249 36.21 149.669 35.98 149.189 35.52C148.709 35.04 148.469 34.44 148.469 33.72C148.469 32.98 148.699 32.38 149.159 31.92C149.639 31.46 150.229 31.23 150.929 31.23C151.629 31.23 152.209 31.46 152.669 31.92C153.149 32.38 153.389 32.98 153.389 33.72C153.389 34.44 153.149 35.04 152.669 35.52C152.189 35.98 151.609 36.21 150.929 36.21ZM163.47 36.21C161.81 36.21 160.32 35.86 159 35.16C157.68 34.46 156.65 33.49 155.91 32.25C155.17 30.99 154.8 29.57 154.8 27.99C154.8 26.41 155.17 25 155.91 23.76C156.65 22.52 157.67 21.55 158.97 20.85C160.29 20.15 161.79 19.8 163.47 19.8C165.05 19.8 166.43 20.12 167.61 20.76C168.81 21.4 169.71 22.32 170.31 23.52L167.43 25.2C166.97 24.46 166.39 23.91 165.69 23.55C165.01 23.17 164.26 22.98 163.44 22.98C162.04 22.98 160.88 23.44 159.96 24.36C159.04 25.26 158.58 26.47 158.58 27.99C158.58 29.51 159.03 30.73 159.93 31.65C160.85 32.55 162.02 33 163.44 33C164.26 33 165.01 32.82 165.69 32.46C166.39 32.08 166.97 31.52 167.43 30.78L170.31 32.46C169.69 33.66 168.78 34.59 167.58 35.25C166.4 35.89 165.03 36.21 163.47 36.21ZM179.877 36.21C178.257 36.21 176.797 35.86 175.497 35.16C174.197 34.46 173.177 33.49 172.437 32.25C171.717 30.99 171.357 29.57 171.357 27.99C171.357 26.41 171.717 25 172.437 23.76C173.177 22.52 174.197 21.55 175.497 20.85C176.797 20.15 178.257 19.8 179.877 19.8C181.517 19.8 182.987 20.15 184.287 20.85C185.587 21.55 186.597 22.52 187.317 23.76C188.057 25 188.427 26.41 188.427 27.99C188.427 29.57 188.057 30.99 187.317 32.25C186.597 33.49 185.587 34.46 184.287 35.16C182.987 35.86 181.517 36.21 179.877 36.21ZM179.877 33C181.257 33 182.397 32.54 183.297 31.62C184.197 30.7 184.647 29.49 184.647 27.99C184.647 26.49 184.197 25.28 183.297 24.36C182.397 23.44 181.257 22.98 179.877 22.98C178.497 22.98 177.357 23.44 176.457 24.36C175.577 25.28 175.137 26.49 175.137 27.99C175.137 29.49 175.577 30.7 176.457 31.62C177.357 32.54 178.497 33 179.877 33ZM211.593 19.8C213.613 19.8 215.213 20.39 216.393 21.57C217.573 22.73 218.163 24.48 218.163 26.82V36H214.413V27.3C214.413 25.9 214.103 24.85 213.483 24.15C212.863 23.43 211.973 23.07 210.813 23.07C209.553 23.07 208.543 23.49 207.783 24.33C207.023 25.15 206.643 26.33 206.643 27.87V36H202.893V27.3C202.893 25.9 202.583 24.85 201.963 24.15C201.343 23.43 200.453 23.07 199.293 23.07C198.013 23.07 196.993 23.48 196.233 24.3C195.493 25.12 195.123 26.31 195.123 27.87V36H191.373V19.98H194.943V22.02C195.543 21.3 196.293 20.75 197.193 20.37C198.093 19.99 199.093 19.8 200.193 19.8C201.393 19.8 202.453 20.03 203.373 20.49C204.313 20.93 205.053 21.59 205.593 22.47C206.253 21.63 207.103 20.98 208.143 20.52C209.183 20.04 210.333 19.8 211.593 19.8Z" fill="#343C44"/>
<g clip-path="url(#logo)">
<path d="M24.5853 0.601808C20.1299 -0.542707 15.5094 -0.205902 11.1662 2.9345C9.04761 4.46571 7.58014 6.72668 6.29962 9.00635C3.37404 14.2268 -0.875678 21.9016 0.158712 28.0577C0.616709 30.7927 2.12156 33.2252 3.66691 35.5267C8.77343 43.1422 15.3038 50.7079 25.3174 49.95C30.3772 49.5665 35.1441 47.4552 39.5839 44.9946C45.4631 41.7388 52.1586 36.955 52.9375 29.7012C53.8473 21.228 44.9366 13.4971 39.0293 8.71632C34.9323 5.4044 29.8756 1.9615 24.5853 0.601808Z" fill="#343C44"/>
<path d="M25.0401 7.31017C24.4637 7.17295 23.8842 7.05445 23.2954 6.98896C22.7065 6.94218 22.1177 6.90476 21.5319 6.95465C20.9493 7.00455 20.3667 7.07628 19.809 7.23844C19.5286 7.30393 19.2544 7.40685 18.9802 7.49729C18.7123 7.60955 18.4443 7.70935 18.1888 7.84345C17.6685 8.08358 17.1887 8.40167 16.7307 8.72912C16.5095 8.90688 16.2821 9.07216 16.0733 9.26863L15.7587 9.5493C15.6652 9.64598 15.5655 9.73642 15.4751 9.83621C14.7398 10.619 14.1884 11.567 13.6992 12.5774C13.4531 13.0858 13.2256 13.6034 12.9889 14.1461L12.266 15.7833L11.5526 17.3925L11.2005 18.1877C11.0883 18.4528 10.9824 18.721 10.8609 18.9799C9.97604 21.0786 9.18156 23.1743 8.8918 25.1827L8.83884 25.56L8.81391 25.928L8.78587 26.2991L8.79833 26.6578C8.78275 27.1443 8.86688 27.612 8.96658 28.1141C9.18467 29.109 9.62397 30.1412 10.1474 31.1766C10.6771 32.2182 11.2721 33.266 11.8922 34.2702C12.5277 35.265 13.2007 36.238 13.9609 37.133C14.1448 37.3638 14.3504 37.5728 14.5436 37.7911C14.7398 38.0094 14.9361 38.2277 15.1511 38.4241L15.7836 39.0291C16.0017 39.2225 16.2322 39.4002 16.4534 39.5873C17.3601 40.3077 18.3291 40.9533 19.3821 41.3961C19.513 41.4554 19.6407 41.5177 19.7685 41.5739L20.1704 41.7111C20.4414 41.7953 20.7 41.9076 20.9773 41.9699L21.7999 42.1539C22.0709 42.2194 22.3544 42.2288 22.6317 42.2631C23.1801 42.3535 23.744 42.3005 24.2924 42.3099L25.118 42.2163L25.5293 42.1726L25.9437 42.0978C27.0435 41.892 28.1152 41.5427 29.1621 41.1342C29.6855 40.9252 30.2027 40.7007 30.7137 40.4512C31.2278 40.2173 31.7356 39.9522 32.2403 39.6871C33.2436 39.1383 34.2406 38.5582 35.2376 37.9563C36.2252 37.3545 37.1849 36.7339 38.0822 36.0634C39.8736 34.7317 41.4439 33.2036 42.4378 31.5321C42.9301 30.6932 43.2821 29.8356 43.466 28.9468C43.494 28.7223 43.5283 28.4977 43.5688 28.2763C43.5906 28.164 43.5875 28.0611 43.5999 27.952C43.6124 27.8459 43.6155 27.7368 43.6124 27.6276C43.6217 27.4125 43.6031 27.191 43.5906 26.9727C43.5594 26.7513 43.5407 26.5299 43.4971 26.3054C43.3507 25.4072 42.9986 24.4872 42.5469 23.5673C42.3163 23.1088 42.0608 22.6504 41.7711 22.1982C41.4844 21.7491 41.1853 21.2907 40.8551 20.8479C39.5527 19.0641 38.0448 17.2927 36.4371 15.5494C34.8107 13.7968 33.1813 12.0566 31.3088 10.594C29.4456 9.12518 27.3363 7.92453 25.0401 7.31017ZM25.1492 6.88605C27.5108 7.49729 29.7572 8.47652 31.9381 9.59608C33.0286 10.1574 34.1128 10.7468 35.1784 11.3737C36.2408 12.0099 37.2783 12.6492 38.3096 13.329C40.3659 14.6949 42.3848 16.2262 44.1296 18.1721C45.002 19.142 45.8058 20.2148 46.4975 21.4092C46.8464 22.0017 47.1611 22.6348 47.4259 23.3022C47.697 23.9664 47.912 24.6712 48.0678 25.401C48.3918 26.8511 48.3575 28.4821 48.0428 29.926C47.7126 31.3949 47.0988 32.7764 46.3012 33.9677C45.5129 35.1683 44.5627 36.1912 43.5657 37.0925C42.5624 37.9906 41.5 38.764 40.4189 39.4595C39.3346 40.1549 38.2317 40.7755 37.1194 41.34C36.0134 41.9044 34.8731 42.4284 33.6891 42.8774C31.3337 43.7912 28.782 44.4118 26.1929 44.471L25.71 44.4804L25.2177 44.4585L24.2425 44.4086L23.2767 44.2652C23.1178 44.2402 22.9558 44.2278 22.7969 44.1872L22.3233 44.0718C21.0583 43.7974 19.8619 43.2984 18.7434 42.709C16.4971 41.5209 14.6308 39.84 12.9234 38.0686C12.7147 37.8409 12.5028 37.6195 12.2878 37.3981C12.076 37.1736 11.8797 36.9397 11.6709 36.712C11.2472 36.263 10.8671 35.7858 10.4558 35.3243C9.66759 34.3793 8.88869 33.45 8.11912 32.4677C7.35579 31.476 6.60493 30.3938 6.04723 29.109C5.77305 28.4697 5.5425 27.768 5.42722 27.0538L5.33687 26.5174L5.29325 25.9873L5.25586 25.454L5.26521 24.9301C5.29325 23.5298 5.55496 22.1982 5.92884 20.9414C6.30271 19.6815 6.7981 18.4934 7.35268 17.3582C7.63309 16.7937 7.9353 16.2417 8.23752 15.6991C8.55531 15.1627 8.87311 14.6326 9.20648 14.1149C9.54297 13.6003 9.87946 13.092 10.2284 12.5961C10.5774 12.0878 10.9575 11.567 11.3656 11.0649C12.1819 10.0607 13.1353 9.09399 14.2694 8.35489C14.4065 8.26133 14.556 8.17713 14.6993 8.08981L15.1293 7.86216C15.4097 7.70623 15.7119 7.58149 16.0017 7.44739C16.5936 7.19478 17.1918 6.97337 17.8087 6.8112C19.0332 6.47439 20.2888 6.3403 21.5195 6.36836C22.7532 6.39643 23.9683 6.58666 25.1492 6.88605Z" fill="#7480FF"/>
<path d="M29.7608 32.5545C27.3742 31.7561 26.5579 29.1271 24.1277 28.5689C23.2273 28.3631 22.1648 28.4972 21.2364 28.6937C19.8717 28.9806 18.8934 29.1615 17.4883 29.0679C19.2206 30.2062 19.5134 32.1116 21.6726 32.7665C22.5917 33.0441 23.4298 33.384 24.2959 33.805C25.3459 34.3164 26.0563 34.0327 27.0875 33.6615C27.9506 33.3497 28.9226 33.0503 29.7608 32.5545Z" fill="#25A8E0"/>
<path d="M29.8671 30.4901C26.8699 30.7177 26.979 25.8465 25.7514 24.2311C24.6796 22.8215 23.0595 22.5346 21.6762 21.5179C20.6168 20.7352 20.1526 19.8776 19.8847 18.6146C19.7569 18.0064 19.7787 17.2455 19.4609 16.8682C21.6512 18.8547 25.4741 17.8193 27.0631 20.7383C27.8358 22.1573 28.1691 23.1396 29.5213 24.0689C30.8299 24.9671 31.0355 25.6594 30.7707 27.2031C30.5837 28.3071 30.4342 29.5233 29.8671 30.4901Z" fill="#25A8E0"/>
<path d="M31.6174 32.8758C30.1188 31.8279 32.2468 29.6356 32.7795 28.6969C33.0662 28.1948 33.3777 27.5337 33.4806 26.9567C33.5834 26.3767 33.359 25.9401 33.2718 25.3912C32.9852 23.5918 34.2813 22.3101 35.0446 20.8506C35.8516 22.9587 37.0729 24.7675 36.699 27.147C36.3812 29.1678 35.0446 30.83 33.3746 31.9028C32.8605 32.2365 32.1938 32.7261 31.6174 32.8758Z" fill="#25A8E0"/>
</g>
<defs>
<clipPath id="logo">
<rect width="53" height="50" fill="white"/>
</clipPath>
</defs>
</svg>
