<svg width="461" height="273" viewBox="0 0 461 273" fill="none" xmlns="http://www.w3.org/2000/svg">
<path d="M14.5935 136.395H64.5547V178.934H14.5935V136.395Z" fill="#3F3D56"/>
<path d="M5.98174 136.393H51.6836V178.933H5.98174V136.393Z" fill="#FFD078"/>
<path d="M5.85638 179.104H51.8691V136.225H5.85638V179.104ZM51.5273 178.764H6.13631V136.565H51.5273V178.764Z" fill="#3F3D56"/>
<path d="M21.6499 136.395V147.004L24.51 145.27L26.7174 146.902L29.3601 145.27L31.7852 147.004V136.395H21.6499Z" fill="#3F3D56"/>
<path d="M31.7868 157.273H42.3262V157.954H31.7868V157.273Z" fill="#3F3D56"/>
<path d="M31.7868 161.762H42.3262V162.442H31.7868V161.762Z" fill="#3F3D56"/>
<path d="M31.7868 166.248H42.3262V166.928H31.7868V166.248Z" fill="#3F3D56"/>
<path d="M11.6408 156.354H28.709V168.018H11.6408V156.354Z" fill="#FEFEFE"/>
<path d="M11.4842 168.154H28.8633V156.15H11.4842V168.154ZM28.5524 167.814H11.7951V156.49H28.5524V167.814Z" fill="#3F3D56"/>
<path d="M63.1855 186.722H49.8479C49.2262 186.722 48.6045 187.028 48.2314 187.572L41.4848 196.855C40.3967 198.351 41.3606 200.527 43.1016 200.527H63.1855V186.722Z" fill="#F27B79"/>
<path d="M43.1024 200.697H63.3418V186.551H49.8487C49.1648 186.551 48.512 186.891 48.1078 187.469L41.3613 196.752C40.8328 197.5 40.7085 198.486 41.1127 199.336C41.4546 200.153 42.2319 200.697 43.1024 200.697ZM63.0309 200.357H43.1024C42.3562 200.357 41.7033 199.914 41.3613 199.166C41.0504 198.418 41.1127 197.568 41.579 196.956L48.3254 187.673C48.6985 187.163 49.2271 186.891 49.8178 186.891H62.9998V200.357H63.0309Z" fill="#3F3D56"/>
<path d="M199.08 128.369C199.08 129.627 198.148 130.613 197.028 130.613H190.313C189.163 130.613 188.261 129.593 188.261 128.369C188.261 127.111 189.194 126.125 190.313 126.125H197.028C198.148 126.091 199.08 127.111 199.08 128.369Z" fill="#3F3D56"/>
<path d="M173.742 131.022H182.012V143.842H173.742V131.022Z" fill="#3F3D56"/>
<path d="M195.037 226.095V151.149C195.037 144.79 190.312 139.622 184.498 139.622H154.03C148.216 139.622 143.49 144.79 143.49 151.149V220.178C143.49 226.027 139.169 230.753 133.822 230.753H125.272C119.924 230.753 115.603 226.027 115.603 220.178V190.016C115.603 190.016 115.821 180.903 120.95 179.577H68.2845C68.2845 179.577 46.3973 199.095 41.796 230.549V234.018H195.037V226.095Z" fill="#FFD078"/>
<path d="M41.6414 234.191H195.193V151.153C195.193 144.692 190.406 139.455 184.499 139.455H154.031C148.124 139.455 143.336 144.692 143.336 151.153V220.181C143.336 225.928 139.076 230.587 133.822 230.587H125.273C120.019 230.587 115.759 225.928 115.759 220.181V190.02C115.759 189.918 116.008 181.042 121.013 179.75L122.319 179.41H68.2542L68.2231 179.444C68.1609 179.478 62.658 184.443 56.6888 193.148C51.1548 201.207 44.0665 214.231 41.7036 230.519L41.6414 234.191ZM194.882 233.851H41.9523V230.553C44.3151 214.367 51.3725 201.377 56.8754 193.386C62.5648 185.089 67.8189 180.226 68.3474 179.75H120.019C115.697 181.825 115.479 189.646 115.448 190.02V220.181C115.448 226.098 119.863 230.927 125.273 230.927H133.822C139.232 230.927 143.647 226.098 143.647 220.181V151.153C143.647 144.896 148.31 139.795 154.031 139.795H184.499C190.219 139.795 194.882 144.896 194.882 151.153V233.851Z" fill="#3F3D56"/>
<path d="M174.271 139.591H178.002V214.944H174.271V139.591Z" fill="#3F3D56"/>
<path d="M0.261215 177.743H71.3945V181.62H0.261215V177.743Z" fill="#3F3D56"/>
<path d="M80.1924 234.226H129.625V245.345H80.1924V234.226Z" fill="#3F3D56"/>
<path d="M62.3778 267.244C49.9465 267.244 39.8689 254.714 39.8689 239.258C39.8689 223.802 49.9465 211.272 62.3778 211.272C74.8092 211.272 84.8867 223.802 84.8867 239.258C84.8867 254.714 74.8092 267.244 62.3778 267.244Z" fill="#2F2E41"/>
<path d="M58.5872 256.223C50.4999 256.223 43.9439 248.063 43.9439 237.997C43.9439 227.931 50.4999 219.771 58.5872 219.771C66.6744 219.771 73.2305 227.931 73.2305 237.997C73.2305 248.063 66.6744 256.223 58.5872 256.223Z" fill="#FEFEFE"/>
<path d="M58.586 256.394C66.7626 256.394 73.3848 248.131 73.3848 237.998C73.3848 227.865 66.7315 219.602 58.586 219.602C50.4405 219.602 43.7873 227.865 43.7873 237.998C43.7873 248.131 50.4094 256.394 58.586 256.394ZM58.586 219.942C66.5761 219.942 73.0739 228.035 73.0739 237.998C73.0739 247.961 66.5761 256.054 58.586 256.054C50.596 256.054 44.0982 247.961 44.0982 237.998C44.0982 228.035 50.596 219.942 58.586 219.942Z" fill="#3F3D56"/>
<path d="M66.3262 238.101C66.3262 242.147 64.5851 245.752 59.0201 245.752C55.7557 245.752 54.5432 242.147 54.5432 238.101C54.5432 234.054 55.7868 230.756 59.0201 230.756C64.5851 230.756 66.3262 234.02 66.3262 238.101Z" fill="#3F3D56"/>
<path d="M58.6496 245.443C55.3872 245.443 52.7426 242.155 52.7426 238.098C52.7426 234.042 55.3872 230.753 58.6496 230.753C61.912 230.753 64.5566 234.042 64.5566 238.098C64.5566 242.155 61.912 245.443 58.6496 245.443Z" fill="#FEFEFE"/>
<path d="M58.6484 245.582C61.975 245.582 64.7109 242.215 64.7109 238.067C64.7109 233.918 62.0061 230.552 58.6484 230.552C55.2908 230.552 52.586 233.918 52.586 238.067C52.586 242.215 55.3218 245.582 58.6484 245.582ZM58.6484 230.926C61.8196 230.926 64.4 234.156 64.4 238.101C64.4 242.045 61.8196 245.276 58.6484 245.276C55.4773 245.276 52.8968 242.045 52.8968 238.101C52.8968 234.156 55.4773 230.926 58.6484 230.926Z" fill="#3F3D56"/>
<path d="M189.194 267.244C176.763 267.244 166.685 254.714 166.685 239.258C166.685 223.802 176.763 211.272 189.194 211.272C201.626 211.272 211.703 223.802 211.703 239.258C211.703 254.714 201.626 267.244 189.194 267.244Z" fill="#2F2E41"/>
<path d="M185.402 256.223C177.314 256.223 170.759 248.063 170.759 237.997C170.759 227.931 177.314 219.771 185.402 219.771C193.489 219.771 200.045 227.931 200.045 237.997C200.045 248.063 193.489 256.223 185.402 256.223Z" fill="#FEFEFE"/>
<path d="M185.4 256.394C193.577 256.394 200.199 248.131 200.199 237.998C200.199 227.865 193.546 219.602 185.4 219.602C177.255 219.602 170.602 227.865 170.602 237.998C170.602 248.131 177.224 256.394 185.4 256.394ZM185.4 219.942C193.391 219.942 199.888 228.035 199.888 237.998C199.888 247.961 193.391 256.054 185.4 256.054C177.41 256.054 170.913 247.961 170.913 237.998C170.913 228.035 177.41 219.942 185.4 219.942Z" fill="#3F3D56"/>
<path d="M193.143 238.101C193.143 242.147 191.402 245.446 185.836 245.446C182.572 245.446 181.359 242.147 181.359 238.101C181.359 234.054 182.603 230.756 185.836 230.756C191.402 230.756 193.143 234.02 193.143 238.101Z" fill="#3F3D56"/>
<path d="M185.462 245.443C182.2 245.443 179.555 242.155 179.555 238.098C179.555 234.042 182.2 230.753 185.462 230.753C188.724 230.753 191.369 234.042 191.369 238.098C191.369 242.155 188.724 245.443 185.462 245.443Z" fill="#FEFEFE"/>
<path d="M185.463 245.582C188.789 245.582 191.525 242.215 191.525 238.067C191.525 233.918 188.821 230.552 185.463 230.552C182.105 230.552 179.4 233.918 179.4 238.067C179.4 242.215 182.136 245.582 185.463 245.582ZM185.463 230.926C188.634 230.926 191.214 234.156 191.214 238.101C191.214 242.045 188.634 245.276 185.463 245.276C182.292 245.276 179.711 242.045 179.711 238.101C179.711 234.156 182.323 230.926 185.463 230.926Z" fill="#3F3D56"/>
<path d="M20.998 230.653H23.8583C24.2313 227.423 26.7495 224.94 29.7963 224.94H93.3438V238.066H29.7963C26.9049 238.066 24.48 235.822 23.9204 232.829H20.998V230.653Z" fill="#3F3D56"/>
<path d="M32.2822 234.018C32.2822 234.018 28.3339 199.402 65.2996 189.983C78.637 186.582 109.26 184.372 102.39 234.018H32.2822Z" fill="#FFD078"/>
<path d="M32.1276 234.191H102.484L102.515 234.055C105.064 215.591 102.67 202.465 95.3952 195.12C86.5035 186.109 72.6686 187.945 65.2382 189.849C56.7818 191.992 49.7866 195.664 44.4081 200.731C40.1177 204.777 36.8534 209.742 34.7393 215.489C31.1329 225.248 32.0656 233.953 32.0967 234.055L32.1276 234.191ZM102.235 233.851H32.4076C32.3143 232.661 31.7236 224.568 35.0502 215.591C38.3457 206.682 46.2735 195.018 65.3004 190.155C72.6687 188.285 86.3792 186.449 95.1776 195.358C102.39 202.635 104.753 215.591 102.235 233.851Z" fill="#3F3D56"/>
<path d="M117.469 181.62H71.1144C66.2955 181.62 62.3781 177.335 62.3781 172.065C62.3781 166.488 66.7306 162.101 71.7983 162.543L117.998 166.556C121.573 166.862 124.34 170.126 124.34 174.071C124.34 178.219 121.262 181.62 117.469 181.62Z" fill="#3F3D56"/>
<path d="M164.974 230.177H217.951C217.951 230.177 217.081 221.642 211.826 213.889C200.323 197.057 176.415 199.369 167.959 218.208C166.436 221.54 165.379 225.485 164.974 230.177Z" fill="#FFD078"/>
<path d="M164.789 230.347H218.107L218.076 230.143C218.076 230.041 217.144 221.472 211.921 213.787C206.48 205.796 197.775 201.579 188.634 202.497C179.556 203.415 171.784 209.264 167.773 218.139C166.188 221.71 165.162 225.722 164.789 230.143V230.347ZM217.765 230.007H165.162C165.535 225.722 166.53 221.778 168.084 218.309C172.033 209.536 179.712 203.755 188.697 202.871C197.713 201.953 206.324 206.136 211.703 214.025C216.429 220.996 217.579 228.715 217.765 230.007Z" fill="#3F3D56"/>
<path d="M31.9102 236.266H168.176V231.778H217.889V227.697H168.083C166.062 227.697 164.446 229.5 164.446 231.676V232.186H31.9102V236.266Z" fill="#3F3D56"/>
<path d="M127.512 258.267H136.621V254.187H128.787L111.252 239.565L109.014 242.795L127.512 258.267Z" fill="#3F3D56"/>
<path d="M173.462 135.27H184.81C185.494 135.27 186.178 135.168 186.8 134.998C190.406 134.012 193.08 130.441 193.08 126.191C193.08 123.674 192.147 121.43 190.655 119.798C189.598 118.642 188.292 117.826 186.8 117.418C186.147 117.248 185.494 117.146 184.779 117.146H183.131C177.442 117.146 172.001 120.24 169.048 125.579C168.892 125.851 168.737 126.157 168.581 126.463C166.685 130.475 169.327 135.27 173.462 135.27Z" fill="#FFD078"/>
<path d="M173.461 135.443H184.809C185.493 135.443 186.177 135.341 186.861 135.171C190.623 134.151 193.266 130.478 193.266 126.194C193.266 123.711 192.395 121.399 190.778 119.665C189.69 118.475 188.322 117.624 186.861 117.216C186.177 117.046 185.493 116.944 184.809 116.944H183.161C177.317 116.944 171.876 120.209 168.953 125.479C168.798 125.785 168.643 126.058 168.487 126.364C167.554 128.268 167.585 130.546 168.611 132.416C169.668 134.321 171.472 135.443 173.461 135.443ZM184.809 117.318C185.462 117.318 186.146 117.42 186.768 117.59C188.198 117.964 189.504 118.781 190.561 119.937C192.084 121.603 192.955 123.847 192.955 126.228C192.955 130.342 190.405 133.879 186.799 134.865C186.146 135.035 185.493 135.137 184.84 135.137H173.493C171.596 135.137 169.886 134.083 168.922 132.28C167.958 130.512 167.896 128.37 168.798 126.568C168.953 126.262 169.109 125.99 169.264 125.683C172.125 120.515 177.472 117.318 183.193 117.318H184.809Z" fill="#3F3D56"/>
<path d="M181.109 126.227C181.109 129.832 182.539 133.062 184.808 135.306H184.84C189.41 135.306 193.141 131.26 193.141 126.227C193.141 123.711 192.208 121.467 190.716 119.834C189.223 118.202 187.14 117.182 184.871 117.182H184.84C182.508 119.392 181.109 122.623 181.109 126.227Z" fill="#3F3D56"/>
<path d="M183.378 126.227C183.378 129.695 184.684 132.79 186.798 135.034C190.404 134.048 193.078 130.477 193.078 126.227C193.078 123.71 192.145 121.466 190.653 119.834C189.596 118.678 188.29 117.862 186.798 117.454C184.684 119.63 183.378 122.758 183.378 126.227Z" fill="#FEFEFE"/>
<path d="M186.768 135.204L186.861 135.17C190.623 134.15 193.266 130.478 193.266 126.193C193.266 123.711 192.395 121.399 190.778 119.664C189.69 118.474 188.322 117.624 186.861 117.216L186.768 117.182L186.706 117.25C184.467 119.596 183.224 122.759 183.224 126.159C183.224 129.56 184.467 132.722 186.706 135.068L186.768 135.204ZM186.861 117.624C188.26 118.032 189.535 118.814 190.561 119.936C192.084 121.603 192.955 123.847 192.955 126.227C192.955 130.308 190.468 133.81 186.861 134.83C184.716 132.552 183.534 129.492 183.534 126.227C183.534 122.929 184.716 119.902 186.861 117.624Z" fill="#3F3D56"/>
<path d="M162.301 127.005H168.426V129.759H162.301V127.005Z" fill="#FFD078"/>
<path d="M162.176 129.964H168.611V126.87H162.176V129.964ZM168.269 129.624H162.456V127.21H168.269V129.624Z" fill="#3F3D56"/>
<path d="M170.725 126.092H168.269C167.119 126.092 166.217 127.112 166.217 128.336C166.217 129.594 167.15 130.58 168.269 130.58H170.725C171.876 130.58 172.777 129.56 172.777 128.336C172.777 127.112 171.876 126.092 170.725 126.092Z" fill="#3F3D56"/>
<path d="M163.482 128.369C163.482 129.627 162.55 130.613 161.431 130.613H154.715C153.565 130.613 152.663 129.593 152.663 128.369C152.663 127.111 153.596 126.125 154.715 126.125H161.431C162.55 126.091 163.482 127.111 163.482 128.369Z" fill="#3F3D56"/>
<path d="M52.5236 225.313H82.8672V227.217H52.5236V225.313Z" fill="white"/>
<path d="M52.367 227.39H83.0215V225.146H52.367V227.39ZM82.7106 227.05H52.6779V225.486H82.7106V227.05Z" fill="black"/>
<path d="M52.5217 220.282H82.8652V222.186H52.5217V220.282Z" fill="white"/>
<path d="M52.367 222.354H83.0215V220.11H52.367V222.354ZM82.7106 222.014H52.6779V220.45H82.7106V222.014Z" fill="black"/>
<path d="M52.5217 215.283H82.8652V217.187H52.5217V215.283Z" fill="white"/>
<path d="M52.367 217.36H83.0215V215.115H52.367V217.36ZM82.7106 217.02H52.6779V215.455H82.7106V217.02Z" fill="black"/>
<path d="M98.7231 258.231H162.457V258.911H98.7231V258.231Z" fill="#3F3D56"/>
<path d="M222.868 272.292H422.396V272.818H222.868V272.292Z" fill="#3F3D56"/>
<path d="M268.323 272.224H292.633C292.633 272.224 291.099 266.497 280.328 261.792L280.361 260.479L280.461 253.367H268.956L268.756 259.64L268.323 272.224Z" fill="#3F3D56"/>
<path d="M268.124 272.405H292.834L292.767 272.186C292.701 271.968 291.1 266.351 280.462 261.682L280.562 253.22H268.724L268.124 272.405ZM292.401 272.041H268.49L269.091 253.548H280.262L280.162 261.901L280.262 261.937C289.599 266.059 291.967 270.946 292.401 272.041Z" fill="#3F3D56"/>
<path d="M236.643 272.224H260.953C260.953 272.224 259.419 266.497 248.648 261.792L248.748 260.917L249.682 253.367H238.177L237.643 259.932L236.643 272.224Z" fill="#3F3D56"/>
<path d="M236.444 272.407H261.188L261.121 272.188C261.054 271.969 259.453 266.352 248.816 261.683L249.849 253.185H238.011L236.444 272.407ZM260.721 272.042H236.811L238.311 253.55H249.483L248.449 261.902L248.582 261.939C257.953 266.06 260.287 270.948 260.721 272.042Z" fill="#3F3D56"/>
<path d="M380.239 272.224H404.549L402.982 258.911L402.348 253.367H390.843L392.21 260.187L392.544 263.251C381.239 267.044 380.239 272.224 380.239 272.224Z" fill="#3F3D56"/>
<path d="M380.038 272.407H404.748L402.514 253.185H390.642L392.076 260.224L392.376 263.106C381.238 266.863 380.104 271.969 380.071 272.188L380.038 272.407ZM404.381 272.042H380.471C380.838 271.021 382.872 266.68 392.61 263.434L392.743 263.398L392.41 260.188L391.076 253.586H402.214L404.381 272.042Z" fill="#3F3D56"/>
<path d="M352.225 272.224H376.535L375.935 259.13L375.668 253.367H364.163L364.464 260.37L364.53 262.85C353.759 267.591 352.225 272.224 352.225 272.224Z" fill="#3F3D56"/>
<path d="M351.993 272.407H376.736L375.836 253.185H363.998L364.331 260.407L364.398 262.778C353.76 267.446 352.159 272.005 352.093 272.188L351.993 272.407ZM376.369 272.042H352.493C352.993 271.021 355.461 267.045 364.598 263.033L364.698 262.996L364.631 260.37L364.331 253.55H375.502L376.369 272.042Z" fill="#3F3D56"/>
<path d="M287.43 10.928L270.523 6.77002L268.689 13.8094C268.222 13.4447 267.755 13.2258 267.322 13.2258C265.321 13.2258 264.921 15.8519 264.921 15.8519C264.354 18.6969 266.054 20.4476 266.821 21.6877L261.019 42.0035L275.392 44.4472L276.625 31.4626C288.997 38.2832 287.43 10.928 287.43 10.928Z" fill="#FFAC71"/>
<path d="M275.559 44.5916L276.793 31.68C279.227 32.9565 281.328 33.0295 282.996 31.8259C288.531 27.8138 287.664 11.583 287.631 10.89V10.7441L270.424 6.51318L268.623 13.4432C268.189 13.1149 267.756 12.969 267.356 12.969C265.255 12.969 264.788 15.7045 264.788 15.741C264.288 18.2212 265.455 19.8625 266.289 21.0661C266.422 21.2485 266.555 21.4309 266.656 21.6133L260.82 42.0385L275.559 44.5916ZM276.493 31.1329L275.259 44.1904L261.253 41.7831L267.022 21.6133L266.989 21.5403C266.856 21.3579 266.722 21.1391 266.556 20.9203C265.755 19.7531 264.655 18.1847 265.122 15.8869C265.155 15.7775 265.522 13.4067 267.356 13.4067C267.756 13.4067 268.189 13.5891 268.623 13.9538L268.823 14.0997L270.691 6.98734L287.331 11.0724C287.398 12.6772 287.964 27.8502 282.829 31.5341C281.228 32.7012 279.161 32.5918 276.76 31.2788L276.493 31.1329Z" fill="#3F3D56"/>
<path d="M292.501 2.97532C291.734 2.79296 289.8 2.97532 288.632 4.03306C288.699 3.88716 288.766 3.74127 288.832 3.59538C290.567 -2.0945 283.264 2.13643 279.395 2.97532C278.595 3.15769 276.827 3.41301 276.827 3.41301C265.256 0.531597 266.423 13.4433 266.423 13.4433C269.458 12.9691 270.358 17.4918 270.358 17.4918C273.459 15.887 274.426 13.5891 274.527 12.6044C277.528 14.0998 285.231 16.9447 291.6 11.9114C295.969 8.44636 294.435 3.37653 292.501 2.97532Z" fill="#2F2E41"/>
<path d="M359.662 57.0655C359.662 57.0655 364.364 47.473 364.764 42.6949L362.797 32.1905C362.797 32.1905 362.563 22.1238 374.668 24.5676C374.668 24.5676 374.602 19.826 377.469 18.6953C377.469 18.6953 376.069 21.3579 376.569 23.984C376.569 23.984 378.903 18.1482 383.305 21.212C383.305 21.212 386.707 23.2545 385.806 26.9748C385.806 26.9748 385.873 31.2058 380.571 31.2787C380.571 31.2787 380.637 36.5674 392.342 43.7527C392.342 43.7527 402.08 48.859 401.279 59.9834C400.479 71.1079 391.409 78.1108 391.409 78.1108L358.061 78.1473L359.662 57.0655Z" fill="#2F2E41"/>
<path d="M378.169 61.1505L376.735 42.8043C376.735 42.8043 379.236 41.1994 378.602 38.0627C378.602 38.0627 378.002 35.546 375.701 37.4791L375.634 33.0293C375.634 33.0293 367.564 36.3484 362.862 31.3516C362.862 31.3516 359.461 48.713 366.631 48.6765L365.097 63.266L378.169 61.1505Z" fill="#FFAC71"/>
<path d="M364.93 63.4833L378.369 61.3314L376.935 42.9122C377.402 42.584 379.37 40.9426 378.803 38.0248C378.803 37.9883 378.536 36.9305 377.735 36.6388C377.202 36.4564 376.602 36.6023 375.901 37.1129L375.835 32.7726L375.601 32.8455C375.535 32.882 367.598 36.0552 362.996 31.2042L362.796 30.9854L362.729 31.3136C362.629 31.7878 360.462 43.0946 363.596 47.289C364.33 48.2738 365.297 48.7845 366.464 48.8209L364.93 63.4833ZM378.002 61.0031L365.33 63.0456L366.864 48.4927H366.664C365.497 48.4927 364.563 48.0185 363.863 47.0702C361.128 43.3864 362.696 33.6114 363.029 31.7148C367.331 35.9458 374.201 33.7574 375.534 33.2832L375.601 37.8424L375.868 37.6235C376.568 37.04 377.169 36.8211 377.635 37.0035C378.269 37.2223 378.502 38.1342 378.502 38.1342C379.103 41.125 376.802 42.6204 376.702 42.6934L376.602 42.7663V42.8757L378.002 61.0031Z" fill="#2F2E41"/>
<path d="M268.725 259.676L280.33 260.478L280.43 253.366H268.925L268.725 259.676Z" fill="#3F3D56"/>
<path d="M237.645 259.931L248.75 260.916L249.684 253.366H238.179L237.645 259.931Z" fill="#3F3D56"/>
<path d="M254.218 106.595L254.685 109.367L257.52 126.473L264.856 170.46L265.29 184.976L267.524 257.705H286.932L289.1 170.898L286.032 122.497L284.998 106.595H254.218Z" fill="#CDCBCC"/>
<path d="M267.356 257.889H287.098V257.707L289.266 170.9L285.164 106.415H254.017L264.689 170.499L267.356 257.889ZM286.765 257.525H267.656L264.989 170.462L254.384 106.779H284.797L288.932 170.936L286.765 257.525Z" fill="#3F3D56"/>
<path d="M390.842 253.366L392.243 260.186L403.014 258.91L402.347 253.366H390.842Z" fill="#3F3D56"/>
<path d="M364.164 253.366L364.464 260.405L375.936 259.129L375.669 253.366H364.164Z" fill="#3F3D56"/>
<path d="M234.475 258.071H254.083L265.287 184.977L267.789 168.601L272.057 126.364L273.758 109.368H241.911L242.045 122.79L242.511 167.069L234.475 258.071Z" fill="#CDCBCC"/>
<path d="M234.309 258.254H254.251L254.284 258.108L267.99 168.638L273.992 109.187H241.779L242.379 167.07L234.309 258.254ZM253.95 257.889H234.676L242.679 167.107L242.079 109.551H273.592L267.623 168.566L253.95 257.889Z" fill="#3F3D56"/>
<path d="M354.894 159.775L360.029 257.706H377.77L377.17 195.628L376.803 160.212L379.371 127.386L380.371 114.292L365.498 114.037L357.095 113.854L356.394 128.553L354.894 159.775Z" fill="#3F3D56"/>
<path d="M359.895 257.889H377.936V257.707L376.969 160.213L380.57 114.11L356.961 113.672L354.726 159.775L359.895 257.889ZM377.602 257.524H360.195L355.06 159.775L357.261 114.037L380.203 114.475L376.635 160.213L377.602 257.524Z" fill="#3F3D56"/>
<path d="M241.913 109.369L242.046 122.791C247.582 124.797 252.784 125.964 257.519 126.475C262.955 127.095 267.857 126.912 272.059 126.329C278.362 125.49 283.164 123.739 285.998 122.463L284.998 106.56H254.218L254.685 109.332H241.913V109.369Z" fill="#3F3D56"/>
<path d="M365.298 112.505L365.498 114.037L367.399 129.174L372.434 169.076L377.17 195.629L388.108 257.123L404.348 257.488L396.878 167.143L394.81 119.946L394.444 111.63L365.298 112.505Z" fill="#3F3D56"/>
<path d="M404.547 257.67V257.451L397.077 167.106L394.609 111.411L365.13 112.286L372.267 169.112L387.973 257.305L404.547 257.67ZM394.276 111.812L396.71 167.142L404.18 257.269L388.24 256.904L372.6 169.002L365.497 112.651L394.276 111.812Z" fill="#3F3D56"/>
<path d="M358.496 59.6914L345.558 78.1106L327.483 81.9768V96.2015L348.659 94.013C350.126 93.8672 351.493 93.2836 352.694 92.3717L361.164 85.8065L358.496 59.6914Z" fill="#CDCBCC"/>
<path d="M327.315 96.4208L348.691 94.1959C350.158 94.05 351.592 93.4665 352.826 92.5182L361.396 85.88L358.662 59.2178L345.49 77.9287L327.349 81.8314V96.4208H327.315ZM361.03 85.7341L352.626 92.2628C351.459 93.1747 350.092 93.7218 348.658 93.8677L327.649 96.0561V82.1597L345.656 78.2935L345.69 78.257L358.395 60.2026L361.03 85.7341Z" fill="#3F3D56"/>
<path d="M276.226 39.7749C276.226 39.7749 273.725 46.2307 262.487 33.5015L243.212 41.2703C240.478 42.5834 238.544 45.3189 238.043 48.5286L235.009 67.276H245.547L240.678 117.391C240.678 117.391 254.884 121.512 265.755 121.768C283.696 122.205 287.664 118.704 287.664 118.704L286.864 100.905L286.73 60.419C286.93 54.6561 284.73 50.3158 281.595 45.6472L276.226 39.7749Z" fill="#FFD078"/>
<path d="M268.758 121.988C283.997 121.988 287.599 118.961 287.732 118.852L287.799 118.779L286.999 100.87L286.865 60.3845C287.065 54.7311 284.931 50.3178 281.696 45.5033L276.161 39.4487L276.061 39.704C276.027 39.7405 275.56 40.8712 274.16 41.163C272.326 41.5277 268.858 40.47 262.588 33.3576L262.522 33.2847L262.422 33.3211L243.147 41.09C240.346 42.4395 238.378 45.2115 237.878 48.4941L234.81 67.4604H245.348L240.479 117.539L240.612 117.575C240.746 117.612 254.952 121.697 265.723 121.988C266.757 121.988 267.791 121.988 268.758 121.988ZM287.465 118.596C286.865 119.034 282.163 121.988 265.723 121.587C255.585 121.332 242.347 117.648 240.846 117.247L245.715 67.0592H235.21L238.212 48.5306C238.712 45.3574 240.579 42.6948 243.28 41.4183L262.455 33.7223C268.791 40.8712 272.393 41.9289 274.26 41.5277C275.46 41.2724 276.061 40.47 276.294 40.0688L281.496 45.7222C284.764 50.6096 286.765 54.8041 286.565 60.3845L286.698 100.87L287.465 118.596Z" fill="#3F3D56"/>
<path d="M287.733 58.5962H340.922V103.896H287.733V58.5962Z" fill="#3F3D56"/>
<path d="M278.561 58.5967H327.215V103.897H278.561V58.5967Z" fill="#FEFEFE"/>
<path d="M278.396 104.079H327.383V58.4146H278.396V104.079ZM327.049 103.715H278.729V58.7793H327.049V103.715Z" fill="#3F3D56"/>
<path d="M295.237 58.5962V69.903L298.271 68.0793L300.606 69.7936L303.407 68.0793L306.008 69.903V58.5962H295.237Z" fill="#3F3D56"/>
<path d="M305.973 80.8477H317.211V81.5771H305.973V80.8477Z" fill="#3F3D56"/>
<path d="M305.975 85.623H317.213V86.3525H305.975V85.623Z" fill="#3F3D56"/>
<path d="M305.975 90.4009H317.213V91.1303H305.975V90.4009Z" fill="#3F3D56"/>
<path d="M284.566 79.8613H302.74V92.2624H284.566V79.8613Z" fill="#FEFEFE"/>
<path d="M284.398 92.4459H302.906V79.6802H284.398V92.4459ZM302.573 92.0812H284.732V80.0449H302.573V92.0812Z" fill="#3F3D56"/>
<path d="M356.395 128.555C359.196 128.993 363.031 129.357 367.399 129.175C371.067 129.029 375.136 128.519 379.337 127.388C384.44 126.002 389.742 123.668 394.777 119.947L394.41 111.631L365.298 112.507L365.498 114.039L357.095 113.893L356.395 128.555Z" fill="#3F3D56"/>
<path d="M327.316 105.39C327.616 105.938 328.016 106.375 328.483 106.74C328.95 107.105 329.483 107.36 330.05 107.469L332.685 108.126C334.385 108.527 336.12 108.746 337.854 108.746H340.154C340.821 108.746 341.488 108.564 342.055 108.199L344.523 106.703L347.124 106.375L356.795 105.099V96.965L348.658 98.351L344.89 99.0075L336.72 96.5273C336.72 96.5273 335.286 99.7735 339.754 101.415L335.419 103.749H328.149C327.382 103.676 326.882 104.661 327.316 105.39Z" fill="#E78D4C"/>
<path d="M337.886 108.894H340.187C340.887 108.894 341.588 108.711 342.188 108.31L344.622 106.851L356.994 105.21V96.7116L344.923 98.7906L336.652 96.2739L336.586 96.4198C336.552 96.4563 336.052 97.6234 336.586 98.9365C336.986 99.9942 337.92 100.833 339.353 101.417L335.419 103.532H328.182C327.749 103.532 327.348 103.787 327.148 104.189C326.948 104.59 326.948 105.101 327.182 105.502C327.515 106.049 327.915 106.523 328.382 106.888C328.882 107.252 329.416 107.508 329.983 107.654L332.617 108.31C334.385 108.711 336.119 108.894 337.886 108.894ZM356.661 104.918L344.489 106.523L342.021 108.018C341.454 108.347 340.821 108.529 340.187 108.529H337.886C336.152 108.529 334.418 108.31 332.751 107.909L330.116 107.252C329.583 107.107 329.083 106.888 328.616 106.523C328.182 106.195 327.782 105.757 327.482 105.246C327.315 104.955 327.315 104.59 327.449 104.298C327.582 104.006 327.882 103.824 328.182 103.824H335.485L340.221 101.271L339.82 101.125C338.286 100.578 337.286 99.7389 336.886 98.7177C336.519 97.8058 336.719 96.9669 336.852 96.6387L344.923 99.0824L356.661 97.0763V104.918Z" fill="#3F3D56"/>
<path d="M294.635 30.7324H327.615V58.8171H294.635V30.7324Z" fill="#3F3D56"/>
<path d="M288.967 30.73H319.113V58.8146H288.967V30.73Z" fill="#FFD078"/>
<path d="M288.8 59.0002H319.279V30.5508H288.8V59.0002ZM318.946 58.6354H289.133V30.9155H318.946V58.6354Z" fill="#3F3D56"/>
<path d="M299.27 30.7324V37.7353L301.171 36.6047L302.638 37.6624L304.372 36.6047L305.973 37.7353V30.7324H299.27Z" fill="#3F3D56"/>
<path d="M305.939 44.3745H312.908V45.104H305.939V44.3745Z" fill="#3F3D56"/>
<path d="M305.941 47.3276H312.91V48.0571H305.941V47.3276Z" fill="#3F3D56"/>
<path d="M305.939 50.3203H312.908V51.0498H305.939V50.3203Z" fill="#3F3D56"/>
<path d="M292.668 43.9014H303.939V51.5973H292.668V43.9014Z" fill="#FEFEFE"/>
<path d="M292.501 51.7784H304.105V43.7178H292.501V51.7784ZM303.772 51.4137H292.834V44.0825H303.772V51.4137Z" fill="#3F3D56"/>
<path d="M347.157 106.342L356.828 105.065V96.9316L348.691 98.3177L347.157 106.342Z" fill="#3F3D56"/>
<path d="M350.093 97.5143L356.196 96.2377L357.196 63.4845C357.263 61.4055 358.13 59.4359 359.597 58.0864L365.833 52.3965C365.833 52.3965 367.034 60.7489 378.672 52.3965L389.443 56.6274C392.478 57.8311 394.779 60.6395 395.512 64.068L402.315 100.213C402.949 103.569 400.681 106.742 397.547 106.852L394.312 106.961L395.879 118.487C395.879 118.487 384.775 123.702 373.37 124.468C360.231 125.38 355.929 121.952 356.096 121.477L356.763 109.222L350.093 109.514V97.5143Z" fill="#CDCBCC"/>
<path d="M369.1 124.869C370.401 124.869 371.835 124.833 373.369 124.723C384.674 123.957 395.812 118.778 395.945 118.705L396.078 118.632L396.045 118.486L394.511 107.179L397.579 107.07C399.113 106.997 400.547 106.231 401.514 104.882C402.481 103.569 402.848 101.854 402.514 100.213L395.711 64.0677C394.944 60.5297 392.643 57.7213 389.509 56.4812L378.671 52.2138L378.604 52.2502C374.102 55.4964 370.534 56.6271 368.267 55.5329C366.366 54.621 366.032 52.3961 366.032 52.3961L365.999 52.0679L359.563 57.9766C358.062 59.3626 357.162 61.3686 357.095 63.5206L356.095 96.128L349.992 97.4045V109.806L356.662 109.514L355.995 121.55C355.961 121.659 355.995 121.732 356.062 121.842C356.462 122.535 359.963 124.869 369.1 124.869ZM395.678 118.413C394.444 118.96 383.973 123.593 373.335 124.322C360.763 125.197 356.462 122.061 356.262 121.55V121.514L356.929 109.04L350.226 109.331V97.6234L356.328 96.3468L357.329 63.4476C357.395 61.4051 358.262 59.5085 359.663 58.1954L365.666 52.6879C365.832 53.3809 366.399 55.0222 368.033 55.7882C370.434 56.9553 373.969 55.8611 378.638 52.542L389.342 56.7365C392.343 57.9036 394.578 60.6392 395.311 64.0677L402.114 100.213C402.414 101.745 402.047 103.35 401.18 104.59C400.28 105.83 398.946 106.559 397.512 106.632L394.077 106.742L395.678 118.413Z" fill="#3F3D56"/>
<path d="M394.282 106.756L394.301 107.12L356.479 109.495L356.46 109.131L394.282 106.756Z" fill="#3F3D56"/>
<path d="M356.061 96.4201L384.84 89.9278L382.239 74.2441L381.905 74.3171L384.473 89.636L355.994 96.0918L356.061 96.4201Z" fill="#3F3D56"/>
<path d="M233.443 90.3276C233.143 94.0115 235.244 97.44 238.479 98.5342L272.56 110.133L275.794 111.373C277.028 111.847 278.362 111.993 279.663 111.811L286.199 110.935C286.599 110.862 287.033 110.753 287.399 110.607L295.036 107.543C296.003 107.142 296.87 106.412 297.437 105.464L297.537 105.282C297.937 104.625 297.504 103.75 296.77 103.75H284.498C288.066 101.27 287.8 99.0813 287.8 99.0813L280.263 100.212L274.761 100.941L248.783 87.0815L251.784 70.7048L252.385 67.3857H235.111L234.944 69.3188L233.443 90.3276Z" fill="#FFAC71"/>
<path d="M278.629 112.066C278.996 112.066 279.362 112.029 279.696 111.993L286.232 111.118C286.666 111.045 287.099 110.935 287.466 110.789L295.102 107.725C296.136 107.324 296.97 106.595 297.57 105.574L297.67 105.391C297.904 105.026 297.904 104.552 297.703 104.188C297.503 103.786 297.17 103.567 296.736 103.567H285.032C288.166 101.197 287.966 99.1542 287.933 99.0448L287.899 98.8624L280.196 99.9931L274.727 100.686L248.916 86.9355L252.551 67.1304H234.944L233.143 90.2911C232.843 94.0844 234.977 97.5494 238.312 98.68L272.393 110.279L275.628 111.519C276.661 111.883 277.662 112.066 278.629 112.066ZM296.836 103.932C297.103 103.932 297.37 104.078 297.503 104.37C297.637 104.625 297.637 104.953 297.47 105.209L297.37 105.391C296.803 106.303 296.003 106.996 295.069 107.397L287.433 110.461C287.066 110.607 286.666 110.716 286.265 110.789L279.729 111.665C278.462 111.847 277.128 111.701 275.928 111.227L272.693 109.987L238.612 98.3882C235.444 97.294 233.41 94.0114 233.677 90.364L235.444 67.5316H252.351L248.75 87.1544L248.85 87.2273L274.861 101.087L280.43 100.358L287.766 99.2636C287.733 99.8107 287.366 101.598 284.531 103.567L284.064 103.896H296.836V103.932Z" fill="#3F3D56"/>
<path d="M253.978 59.4803L254.303 59.5654L252.458 67.9711L252.134 67.886L253.978 59.4803Z" fill="#3F3D56"/>
<path d="M235.077 69.248L251.851 70.6705L252.484 67.3149H235.211L235.077 69.248Z" fill="#3F3D56"/>
<path d="M324.929 165.083C324.052 165.082 323.184 165.271 322.375 165.637C321.565 166.004 320.829 166.542 320.209 167.219C319.589 167.897 319.097 168.702 318.761 169.588C318.426 170.474 318.253 171.423 318.252 172.382C318.252 170.445 317.549 168.588 316.298 167.219C315.046 165.849 313.348 165.08 311.578 165.08C313.348 165.08 315.046 164.311 316.298 162.941C317.549 161.572 318.252 159.715 318.252 157.778C318.252 159.715 318.956 161.572 320.207 162.941C321.459 164.311 323.156 165.08 324.927 165.08L324.929 165.083Z" fill="#555185"/>
<path d="M342.61 211.226C344.113 211.226 345.332 209.893 345.332 208.247C345.332 206.602 344.113 205.269 342.61 205.269C341.106 205.269 339.887 206.602 339.887 208.247C339.887 209.893 341.106 211.226 342.61 211.226Z" fill="#FFD078"/>
<path d="M230.887 177.285C232.391 177.285 233.61 175.951 233.61 174.306C233.61 172.661 232.391 171.327 230.887 171.327C229.383 171.327 228.164 172.661 228.164 174.306C228.164 175.951 229.383 177.285 230.887 177.285Z" fill="#FFD078"/>
<path d="M323.914 128.709C325.836 128.709 327.393 127.005 327.393 124.903C327.393 122.801 325.836 121.097 323.914 121.097C321.993 121.097 320.436 122.801 320.436 124.903C320.436 127.005 321.993 128.709 323.914 128.709Z" fill="#FFD078"/>
<path d="M133.328 208.058C131.877 208.058 130.485 208.689 129.458 209.812C128.432 210.934 127.855 212.457 127.855 214.045C127.855 212.457 127.279 210.934 126.253 209.812C125.226 208.689 123.834 208.058 122.383 208.058C123.834 208.058 125.226 207.427 126.253 206.304C127.279 205.182 127.855 203.659 127.855 202.071C127.855 203.659 128.432 205.182 129.458 206.304C130.485 207.427 131.877 208.058 133.328 208.058Z" fill="#555185"/>
<path d="M165.328 204.127C166.331 204.127 167.144 203.237 167.144 202.14C167.144 201.043 166.331 200.153 165.328 200.153C164.325 200.153 163.512 201.043 163.512 202.14C163.512 203.237 164.325 204.127 165.328 204.127Z" fill="#FFD078"/>
<path d="M216.726 104.178C215.849 104.178 214.981 104.366 214.171 104.733C213.362 105.1 212.626 105.637 212.006 106.315C211.386 106.993 210.894 107.798 210.558 108.683C210.222 109.569 210.05 110.519 210.049 111.478C210.049 109.541 209.346 107.684 208.094 106.314C206.843 104.945 205.145 104.176 203.375 104.176C205.145 104.176 206.843 103.406 208.094 102.037C209.346 100.668 210.049 98.8106 210.049 96.874C210.049 98.8106 210.752 100.668 212.004 102.037C213.256 103.406 214.953 104.176 216.723 104.176L216.726 104.178Z" fill="#555185"/>
<path d="M207.486 58.1373L207.494 58.1373L207.503 58.137C208.341 58.1081 209.176 58.2636 209.961 58.5955C210.745 58.9275 211.464 59.43 212.073 60.0756C212.682 60.7213 213.169 61.4968 213.502 62.3571C213.835 63.2175 214.007 64.1438 214.007 65.0806C214.007 66.0174 213.835 66.9436 213.502 67.804C213.169 68.6644 212.682 69.4399 212.073 70.0856C211.464 70.7312 210.745 71.2336 209.961 71.5656C209.176 71.8976 208.341 72.0531 207.503 72.0242L207.494 72.0239H207.486L179.747 72.0239L179.744 72.0239C178.971 72.0289 178.207 71.8321 177.514 71.4471C176.82 71.0619 176.216 70.4984 175.754 69.7997C175.293 69.1009 174.989 68.2885 174.87 67.4298C174.752 66.5712 174.823 65.6942 175.076 64.8728C175.33 64.0515 175.758 63.3124 176.321 62.7152C176.884 62.1183 177.566 61.681 178.307 61.4353C179.049 61.1898 179.832 61.1419 180.592 61.2947C181.353 61.4475 182.073 61.7977 182.692 62.3201L183.681 63.1551L183.51 61.8721C183.097 58.7664 183.818 55.6115 185.509 53.0906C187.2 50.5709 189.72 48.8926 192.517 48.4004C195.312 47.9084 198.177 48.6375 200.495 50.4418C202.814 52.2476 204.402 54.9883 204.899 58.0787L204.995 58.6708L205.56 58.4704C206.183 58.2497 206.833 58.1374 207.486 58.1373Z" fill="white" stroke="black"/>
<path d="M213.632 272.062C214.635 272.062 215.448 271.173 215.448 270.076C215.448 268.978 214.635 268.089 213.632 268.089C212.629 268.089 211.816 268.978 211.816 270.076C211.816 271.173 212.629 272.062 213.632 272.062Z" fill="#FFD078"/>
<path d="M454.326 170.69L454.424 171.275L454.984 171.08C455.405 170.934 455.842 170.861 456.282 170.862C457.374 170.909 458.418 171.416 459.192 172.293C459.968 173.175 460.409 174.359 460.409 175.6C460.41 176.84 459.97 178.026 459.194 178.908C458.422 179.786 457.379 180.294 456.287 180.342H436.768C436.254 180.342 435.744 180.208 435.281 179.948L435.036 180.384L435.281 179.948C434.818 179.688 434.414 179.309 434.104 178.837C433.795 178.366 433.591 177.818 433.512 177.238C433.432 176.658 433.481 176.065 433.652 175.511C433.823 174.957 434.111 174.459 434.489 174.057L434.124 173.715L434.489 174.057C434.866 173.656 435.322 173.362 435.817 173.197C436.311 173.031 436.833 172.997 437.341 173.096C437.849 173.196 438.331 173.427 438.748 173.774L439.727 174.591L439.564 173.326C439.287 171.18 439.791 169.004 440.961 167.269C442.129 165.534 443.864 164.383 445.784 164.043C447.703 163.705 449.672 164.201 451.27 165.437C452.87 166.675 453.972 168.558 454.326 170.69Z" fill="white" stroke="black"/>
</svg>
